<?xml version="1.0" standalone="no"?>
<!DOCTYPE svg PUBLIC "-//W3C//DTD SVG 20010904//EN"
 "http://www.w3.org/TR/2001/REC-SVG-20010904/DTD/svg10.dtd">
<svg version="1.0" xmlns="http://www.w3.org/2000/svg"
 width="347.000000pt" height="194.000000pt" viewBox="0 0 347.000000 194.000000"
 preserveAspectRatio="xMidYMid meet">

<g transform="translate(0.000000,194.000000) scale(0.100000,-0.100000)"
fill="#000000" stroke="none">
<path d="M1735 1783 c-14 -15 -25 -30 -25 -34 0 -3 25 -13 56 -21 58 -17 60
-16 152 17 9 3 7 13 -9 35 -21 28 -27 30 -85 30 -56 0 -66 -3 -89 -27z"/>
<path d="M2050 1609 c1 -59 4 -67 39 -107 l38 -43 17 26 c15 23 16 33 6 73
-15 60 -37 102 -54 102 -8 0 -21 3 -30 6 -14 5 -16 -3 -16 -57z"/>
<path d="M1418 1594 c-56 -29 -100 -53 -97 -53 3 -1 47 17 99 39 51 23 94 39
97 37 2 -3 -2 -17 -9 -32 -8 -19 -36 -39 -91 -67 -44 -21 -77 -42 -74 -44 3
-3 37 11 76 30 l71 36 0 -27 c0 -16 9 -39 19 -52 l18 -23 31 51 c18 28 32 62
32 75 0 13 10 31 23 40 l22 17 -22 -6 c-18 -5 -23 -2 -23 13 0 35 -59 23 -172
-34z"/>
<path d="M1766 1548 c-31 -22 -56 -43 -56 -47 0 -4 10 -34 23 -66 l23 -60 72
-3 71 -3 11 43 c6 24 15 55 20 69 7 24 3 30 -50 67 l-58 40 -56 -40z"/>
<path d="M2206 1548 c4 -12 7 -56 7 -98 0 -86 -14 -126 -70 -203 l-38 -52 30
22 c56 40 123 120 136 163 15 49 2 114 -32 161 -24 35 -43 38 -33 7z"/>
<path d="M1210 1313 c-157 -79 -278 -142 -270 -139 17 5 553 256 559 261 1 2
1 8 0 13 -2 6 -132 -55 -289 -135z"/>
<path d="M1332 1293 c-95 -47 -170 -88 -168 -90 5 -5 346 165 346 172 0 8 3 9
-178 -82z"/>
<path d="M2301 1338 c-60 -124 -206 -213 -371 -226 -64 -5 -71 -7 -45 -14 37
-11 173 -2 240 16 104 27 187 91 201 154 3 15 7 32 9 38 2 6 0 26 -4 45 l-8
34 -22 -47z"/>
<path d="M2030 1305 c-40 -17 -65 -36 -92 -71 -28 -36 -34 -50 -23 -52 28 -6
15 -17 -81 -65 l-95 -48 -110 22 c-60 12 -109 25 -109 29 0 3 27 19 60 35 32
15 57 32 54 37 -3 5 12 -1 33 -12 27 -14 46 -17 66 -12 l27 7 -38 43 c-25 28
-55 49 -90 63 l-53 19 2 -27 c2 -16 12 -38 22 -50 l19 -22 -73 -36 c-68 -35
-76 -37 -136 -30 -35 4 -63 10 -63 14 0 4 41 27 91 51 50 25 93 49 96 53 3 4
-45 -17 -106 -47 -78 -40 -122 -56 -150 -56 -60 0 -57 15 7 43 185 82 252 116
243 121 -5 4 -82 -30 -171 -74 -136 -68 -173 -82 -234 -90 -94 -12 -171 -41
-221 -85 l-40 -35 50 22 c38 17 75 23 155 26 75 2 101 0 90 -7 -18 -13 -5 -14
18 -2 11 6 42 4 82 -3 l65 -12 -180 -93 c-218 -111 -209 -111 30 2 l180 86
113 -27 c95 -23 111 -29 100 -41 -11 -11 -9 -12 10 -2 17 9 37 9 85 0 84 -16
270 -16 337 0 77 19 172 66 211 107 l33 34 -60 -24 c-86 -35 -201 -50 -317
-41 -53 4 -97 10 -97 14 0 3 54 33 120 65 142 70 186 106 195 159 3 20 5 37 3
36 -2 0 -28 -11 -58 -24z"/>
<path d="M1254 760 c-45 -18 -54 -47 -54 -168 0 -62 5 -122 11 -134 14 -26 67
-48 102 -41 36 7 67 48 67 89 0 31 -3 34 -30 34 -26 0 -30 -3 -30 -29 0 -30
-25 -50 -42 -33 -5 5 -7 58 -6 118 3 101 4 109 23 109 14 0 21 -8 23 -27 3
-24 8 -28 33 -28 24 0 29 4 29 25 0 71 -60 112 -126 85z"/>
<path d="M1482 745 l-32 -27 0 -149 0 -149 30 0 c28 0 30 2 30 40 0 38 2 40
30 40 28 0 30 -2 30 -40 0 -38 2 -40 30 -40 l30 0 0 144 c0 136 -1 146 -22
171 -14 15 -38 28 -59 31 -28 5 -41 1 -67 -21z m76 -47 c7 -7 12 -39 12 -75
l0 -63 -30 0 c-30 0 -30 0 -30 59 0 86 15 112 48 79z"/>
<path d="M1750 757 c-42 -21 -50 -51 -50 -199 l0 -138 35 0 34 0 3 143 c3 134
4 142 23 142 19 0 20 -8 23 -142 l3 -143 34 0 34 0 3 143 c3 134 4 142 23 142
19 0 20 -8 23 -142 l3 -143 34 0 35 0 0 135 c0 153 -9 184 -60 205 -24 10 -40
10 -67 2 -23 -7 -42 -8 -54 -2 -24 13 -49 12 -79 -3z"/>
<path d="M1210 280 c0 -5 5 -10 10 -10 6 0 10 -28 10 -65 0 -51 3 -65 15 -65
12 0 15 14 15 65 0 37 4 65 10 65 6 0 10 5 10 10 0 6 -16 10 -35 10 -19 0 -35
-4 -35 -10z"/>
<path d="M1310 215 c0 -74 16 -105 22 -43 4 43 26 48 30 7 2 -18 9 -34 16 -37
9 -3 12 16 12 72 0 61 -3 76 -15 76 -10 0 -15 -10 -15 -31 0 -38 -24 -35 -28
4 -7 57 -22 23 -22 -48z"/>
<path d="M1430 215 l0 -75 29 0 c36 0 50 17 19 22 -31 4 -39 48 -9 48 12 0 21
5 21 10 0 6 -9 10 -20 10 -13 0 -20 7 -20 20 0 13 7 20 20 20 11 0 20 5 20 10
0 6 -13 10 -30 10 l-30 0 0 -75z"/>
<path d="M1590 280 c0 -5 5 -10 10 -10 6 0 10 -28 10 -65 0 -51 3 -65 15 -65
12 0 15 14 15 65 0 37 4 65 10 65 6 0 10 5 10 10 0 6 -16 10 -35 10 -19 0 -35
-4 -35 -10z"/>
<path d="M1690 215 c0 -74 16 -105 22 -43 4 43 26 48 30 7 2 -18 9 -34 16 -37
9 -3 12 16 12 72 0 61 -3 76 -15 76 -10 0 -15 -10 -15 -31 0 -38 -24 -35 -28
4 -7 57 -22 23 -22 -48z"/>
<path d="M1817 284 c-11 -11 -8 -144 3 -144 6 0 10 9 10 20 0 11 7 20 15 20 8
0 15 -9 15 -20 0 -11 5 -20 10 -20 7 0 10 27 8 73 -3 69 -4 72 -28 75 -14 2
-29 0 -33 -4z m43 -49 c0 -24 -5 -35 -15 -35 -10 0 -15 11 -15 35 0 24 5 35
15 35 10 0 15 -11 15 -35z"/>
<path d="M1927 283 c-12 -11 -8 -118 5 -131 33 -33 68 -1 68 63 0 20 -5 45
-10 56 -10 18 -50 26 -63 12z m41 -63 c-4 -60 -22 -71 -26 -16 -4 43 2 66 18
66 7 0 10 -19 8 -50z"/>
</g>
</svg>
