<?xml version="1.0" standalone="no"?>
<!DOCTYPE svg PUBLIC "-//W3C//DTD SVG 20010904//EN"
 "http://www.w3.org/TR/2001/REC-SVG-20010904/DTD/svg10.dtd">
<svg version="1.0" xmlns="http://www.w3.org/2000/svg"
 width="166.000000pt" height="129.000000pt" viewBox="0 0 166.000000 129.000000"
 preserveAspectRatio="xMidYMid meet">

<g transform="translate(0.000000,129.000000) scale(0.100000,-0.100000)"
fill="#000000" stroke="none">
<path d="M896 1201 c-17 -18 -16 -19 18 -31 27 -9 44 -9 71 0 19 6 35 15 35
19 0 34 -96 44 -124 12z"/>
<path d="M1110 1089 c1 -31 8 -53 25 -73 l24 -30 7 28 c9 37 -6 85 -34 104
-22 14 -22 14 -22 -29z"/>
<path d="M750 1095 c0 -9 -12 -27 -27 -41 -15 -14 -20 -22 -11 -19 11 5 19 -3
27 -27 l12 -33 18 24 c22 29 39 81 33 99 -6 18 -52 15 -52 -3z"/>
<path d="M710 1090 c-8 -5 -10 -10 -5 -10 6 0 17 5 25 10 8 5 11 10 5 10 -5 0
-17 -5 -25 -10z"/>
<path d="M914 1048 c-16 -12 -31 -23 -33 -25 -2 -1 4 -23 14 -48 l17 -46 45 3
c45 3 46 4 58 46 13 42 13 43 -19 67 -40 30 -46 31 -82 3z"/>
<path d="M1210 989 c0 -65 -4 -82 -25 -113 -33 -49 -32 -56 6 -20 61 58 77
135 39 184 l-20 25 0 -76z"/>
<path d="M625 931 c-55 -27 -97 -50 -94 -50 3 -1 53 21 110 49 57 27 100 49
94 49 -5 1 -55 -21 -110 -48z"/>
<path d="M1268 905 c-40 -72 -129 -130 -226 -145 -56 -9 -56 -9 23 -6 143 5
231 64 223 149 l-3 32 -17 -30z"/>
<path d="M1078 879 c-38 -19 -61 -49 -63 -81 -1 -16 2 -15 34 3 44 26 81 65
81 85 0 18 -7 17 -52 -7z"/>
<path d="M690 865 c-14 -8 -20 -14 -15 -14 6 0 21 6 35 14 14 8 21 14 15 14
-5 0 -21 -6 -35 -14z"/>
<path d="M790 872 c0 -4 7 -17 15 -29 17 -25 11 -32 -50 -57 -40 -17 -121 -14
-110 4 3 5 -7 5 -22 1 -30 -8 -56 -4 -49 8 7 11 -165 -34 -201 -52 -17 -9 -35
-22 -39 -28 -4 -6 4 -5 17 3 30 16 235 16 252 -1 7 -7 7 -11 1 -11 -6 0 -19
-7 -30 -15 -12 -10 -4 -9 22 4 39 19 45 19 104 5 35 -8 69 -18 74 -22 14 -10
110 -17 208 -16 89 2 164 25 211 66 l32 28 -40 -17 c-57 -24 -263 -23 -354 1
-9 2 -28 7 -43 10 -37 8 -35 19 6 38 23 11 48 15 77 11 l44 -6 -25 28 c-36 39
-100 70 -100 47z"/>
<path d="M556 508 c-11 -16 -16 -46 -16 -99 0 -84 14 -109 63 -109 30 0 63 40
53 65 -8 22 -36 18 -36 -5 0 -11 -7 -20 -15 -20 -12 0 -15 15 -15 75 0 78 7
90 32 53 18 -27 42 -16 32 15 -14 49 -72 63 -98 25z"/>
<path d="M728 516 c-15 -11 -18 -30 -18 -115 0 -81 3 -101 14 -101 8 0 16 10
18 23 2 14 10 22 23 22 13 0 21 -8 23 -22 2 -13 10 -23 18 -23 11 0 14 20 14
99 0 92 -2 101 -22 115 -27 19 -47 20 -70 2z m57 -66 c7 -42 2 -60 -20 -60
-18 0 -25 23 -18 64 8 48 30 46 38 -4z"/>
<path d="M908 522 c-25 -5 -38 -55 -38 -143 0 -77 1 -79 25 -79 24 0 24 2 27
93 2 53 7 92 13 92 6 0 11 -39 13 -92 3 -91 3 -93 27 -93 24 0 24 2 27 93 4
119 22 117 26 -3 3 -89 3 -90 29 -90 l25 0 -4 94 c-5 120 -15 134 -96 133 -31
-1 -65 -3 -74 -5z"/>
<path d="M558 165 c2 -25 8 -45 12 -45 4 0 10 20 12 45 2 35 0 45 -12 45 -12
0 -14 -10 -12 -45z"/>
<path d="M650 195 c0 -8 -4 -15 -10 -15 -5 0 -10 5 -10 12 0 9 -3 9 -11 1 -6
-6 -9 -26 -7 -44 4 -34 4 -34 15 -9 l11 25 10 -25 c10 -22 11 -20 11 23 1 26
-1 47 -4 47 -3 0 -5 -7 -5 -15z"/>
<path d="M690 160 c0 -37 4 -50 14 -50 8 0 18 5 21 10 3 6 1 10 -4 10 -15 0
-14 27 2 33 10 4 10 6 0 6 -7 1 -13 7 -13 15 0 8 6 17 13 19 6 3 2 6 -10 6
-21 1 -23 -4 -23 -49z"/>
<path d="M808 165 c2 -25 8 -45 12 -45 4 0 10 20 12 45 2 35 0 45 -12 45 -12
0 -14 -10 -12 -45z"/>
<path d="M872 165 c0 -27 2 -42 5 -32 5 21 23 23 23 2 0 -8 5 -15 10 -15 6 0
10 18 10 39 0 22 -4 43 -10 46 -5 3 -10 -1 -10 -9 0 -22 -17 -20 -23 2 -3 9
-5 -5 -5 -33z"/>
<path d="M950 163 c0 -35 3 -44 10 -33 9 13 11 13 20 0 8 -11 10 -3 8 30 -2
33 -7 46 -20 48 -15 3 -18 -4 -18 -45z m30 11 c0 -8 -4 -14 -10 -14 -5 0 -10
9 -10 21 0 11 5 17 10 14 6 -3 10 -13 10 -21z"/>
<path d="M1020 172 c0 -46 20 -71 39 -48 7 8 11 30 9 48 -2 25 -8 34 -25 36
-21 3 -23 -1 -23 -36z m30 -2 c0 -16 -4 -30 -10 -30 -11 0 -14 43 -3 53 11 12
13 8 13 -23z"/>
</g>
</svg>
