<svg xmlns="http://www.w3.org/2000/svg" xmlns:xlink="http://www.w3.org/1999/xlink" width="500" zoomAndPan="magnify" viewBox="0 0 375 374.999991" height="500" preserveAspectRatio="xMidYMid meet" version="1.0"><defs><g/><clipPath id="e15ca98550"><path d="M 113.796875 162 L 192 162 L 192 212.769531 L 113.796875 212.769531 Z M 113.796875 162 " clip-rule="nonzero"/></clipPath><clipPath id="a7a10cd7c5"><path d="M 113.796875 101 L 244 101 L 244 191 L 113.796875 191 Z M 113.796875 101 " clip-rule="nonzero"/></clipPath><clipPath id="935b13d793"><path d="M 113.796875 124.878906 L 261 124.878906 L 261 187 L 113.796875 187 Z M 113.796875 124.878906 " clip-rule="nonzero"/></clipPath></defs><rect x="-37.5" width="450" fill="#ffffff" y="-37.499999" height="449.999989" fill-opacity="1"/><rect x="-37.5" width="450" fill="#ffffff" y="-37.499999" height="449.999989" fill-opacity="1"/><g clip-path="url(#e15ca98550)"><path fill="#022b62" d="M 188.894531 162.765625 L 90.03125 212.3125 L 191.414062 164.613281 Z M 188.894531 162.765625 " fill-opacity="1" fill-rule="nonzero"/></g><g clip-path="url(#a7a10cd7c5)"><path fill="#022b62" d="M 232.414062 116.0625 L 220.050781 107.765625 L 216.058594 102.75 C 217.144531 102.964844 218.234375 103.242188 219.320312 103.574219 C 227.175781 105.996094 233.5 111.070312 237.605469 117.511719 Z M 235.496094 150.296875 L 224.464844 154.804688 L 220.75 150.507812 L 217.019531 146.203125 L 218.128906 141.972656 L 220.683594 132.246094 L 232.109375 128.492188 L 239.703125 137.140625 Z M 242.699219 132.085938 C 243.140625 136.40625 242.746094 140.875 241.386719 145.28125 C 240.035156 149.6875 237.84375 153.605469 235.046875 156.929688 L 235.839844 150.484375 L 240.101562 137.171875 Z M 216.941406 164.65625 L 203.027344 165.464844 L 195.828125 157.097656 L 202.980469 146.179688 L 216.722656 146.441406 L 220.484375 150.789062 L 224.167969 155.042969 Z M 222.378906 166.222656 C 222.484375 166.164062 222.59375 166.109375 222.699219 166.054688 L 222.761719 166.0625 C 222.636719 166.121094 222.503906 166.171875 222.378906 166.222656 Z M 217.140625 167.9375 C 211.554688 169.257812 205.558594 169.15625 199.679688 167.347656 C 199.09375 167.167969 198.515625 166.972656 197.941406 166.761719 L 202.96875 165.847656 L 217.03125 165.039062 L 221.574219 165.851562 C 220.089844 166.542969 218.617188 167.230469 217.140625 167.9375 Z M 187.878906 154.050781 C 188.320312 153.804688 188.765625 153.554688 189.207031 153.308594 C 188.699219 153.53125 188.195312 153.757812 187.6875 153.976562 L 185.464844 153.152344 L 181.574219 143.945312 C 184.132812 142.570312 186.675781 141.167969 189.199219 139.734375 C 186.550781 140.886719 183.921875 142.078125 181.300781 143.292969 L 179.667969 139.433594 L 185.6875 129.613281 L 194.695312 131.910156 L 197.699219 132.675781 L 202.667969 145.964844 L 195.507812 156.875 Z M 183.570312 156.445312 C 184.15625 156.121094 184.742188 155.804688 185.324219 155.480469 L 185.609375 158.75 C 184.890625 158.011719 184.214844 157.238281 183.570312 156.445312 Z M 183.214844 155.996094 C 180.863281 152.972656 179.042969 149.574219 177.839844 145.945312 C 178.972656 145.347656 180.101562 144.738281 181.234375 144.132812 L 185.136719 153.355469 L 185.285156 155.050781 C 184.59375 155.359375 183.902344 155.679688 183.214844 155.996094 Z M 176.433594 139.90625 L 177.238281 139.53125 L 176.914062 136.96875 L 176.183594 137.332031 C 176.125 136.203125 176.109375 135.070312 176.164062 133.925781 L 179.277344 139.503906 L 180.953125 143.460938 C 179.816406 143.984375 178.683594 144.515625 177.554688 145.054688 C 177.050781 143.371094 176.675781 141.65625 176.433594 139.90625 Z M 201.589844 103.054688 L 197.542969 108.335938 L 185.722656 117.527344 L 180.207031 119.492188 C 184.761719 111.128906 192.628906 105.257812 201.589844 103.054688 Z M 189.367188 120.957031 C 188.214844 121.503906 187.0625 122.058594 185.914062 122.617188 L 186.003906 117.796875 L 197.71875 108.679688 L 208.90625 111.804688 L 208.855469 124.273438 L 197.808594 132.3125 L 187.574219 129.695312 L 185.796875 129.246094 L 185.890625 123.957031 C 187.207031 123.273438 188.53125 122.589844 189.839844 121.898438 C 194.484375 119.457031 199.113281 116.972656 203.679688 114.367188 C 198.859375 116.472656 194.101562 118.695312 189.367188 120.957031 Z M 209.289062 111.800781 L 219.894531 108.117188 L 232.140625 116.34375 L 231.984375 128.132812 L 220.550781 131.878906 L 211.285156 125.644531 L 209.238281 124.273438 Z M 219.433594 103.210938 C 218.1875 102.828125 216.941406 102.523438 215.691406 102.285156 L 215.65625 102.242188 L 215.613281 102.269531 C 201.925781 99.738281 188.171875 105.976562 180.921875 117.511719 L 180.941406 117.460938 L 146.519531 134.71875 L 179.164062 120.675781 C 178.410156 122.21875 177.769531 123.84375 177.242188 125.53125 C 177.085938 126.050781 176.941406 126.570312 176.8125 127.09375 L 175.226562 127.882812 L 168.203125 131.445312 C 165.871094 132.648438 163.535156 133.835938 161.214844 135.070312 C 156.570312 137.511719 151.941406 139.992188 147.371094 142.59375 C 152.1875 140.492188 156.945312 138.265625 161.6875 136.003906 C 164.058594 134.886719 166.410156 133.71875 168.773438 132.574219 L 175.828125 129.085938 L 176.421875 128.785156 C 175.828125 131.707031 175.636719 134.640625 175.816406 137.519531 L 94.359375 178.34375 L 176.074219 140.074219 C 176.320312 141.820312 176.699219 143.539062 177.207031 145.214844 C 176.433594 145.582031 175.664062 145.953125 174.890625 146.316406 C 172.515625 147.4375 170.160156 148.601562 167.796875 149.746094 L 160.746094 153.242188 L 153.71875 156.804688 C 151.390625 158.011719 149.050781 159.199219 146.734375 160.429688 C 142.085938 162.871094 137.457031 165.355469 132.890625 167.953125 C 137.710938 165.851562 142.46875 163.632812 147.203125 161.363281 C 149.578125 160.246094 151.929688 159.082031 154.289062 157.941406 L 161.34375 154.445312 L 168.371094 150.882812 C 170.699219 149.675781 173.039062 148.488281 175.355469 147.257812 C 176.070312 146.886719 176.78125 146.503906 177.492188 146.125 C 178.175781 148.160156 179.050781 150.125 180.097656 151.992188 L 178.984375 150.949219 L 117.699219 181.667969 L 180.335938 152.402344 C 181.089844 153.707031 181.933594 154.960938 182.863281 156.15625 C 180.191406 157.378906 177.535156 158.628906 174.890625 159.890625 C 172.519531 161.011719 170.167969 162.179688 167.804688 163.320312 L 160.746094 166.816406 L 153.726562 170.378906 C 151.398438 171.585938 149.058594 172.773438 146.742188 174.003906 C 142.089844 176.445312 137.464844 178.925781 132.898438 181.527344 C 137.714844 179.425781 142.46875 177.199219 147.207031 174.9375 C 149.578125 173.820312 151.9375 172.660156 154.292969 171.515625 L 161.351562 168.019531 L 168.371094 164.457031 C 170.707031 163.25 173.046875 162.0625 175.363281 160.832031 C 177.996094 159.449219 180.617188 158.046875 183.234375 156.625 C 183.992188 157.570312 184.800781 158.484375 185.664062 159.347656 L 185.667969 159.402344 L 185.710938 159.394531 C 188.890625 162.5625 192.730469 165.136719 197.121094 166.859375 L 197.125 166.914062 L 197.210938 166.894531 C 197.980469 167.195312 198.765625 167.46875 199.566406 167.71875 C 204.960938 169.378906 210.453125 169.613281 215.648438 168.640625 C 215.507812 168.707031 215.363281 168.773438 215.226562 168.84375 C 212.847656 169.964844 210.496094 171.132812 208.132812 172.269531 L 201.082031 175.765625 L 194.0625 179.324219 C 191.726562 180.535156 189.386719 181.726562 187.070312 182.953125 C 182.417969 185.394531 177.792969 187.878906 173.226562 190.484375 C 178.042969 188.375 182.804688 186.15625 187.539062 183.894531 C 189.914062 182.773438 192.265625 181.605469 194.628906 180.464844 L 201.679688 176.972656 L 208.707031 173.414062 C 211.035156 172.203125 213.375 171.019531 215.691406 169.785156 C 217.09375 169.050781 218.492188 168.308594 219.886719 167.558594 C 229.992188 164.273438 238.398438 156.292969 241.757812 145.394531 C 247.234375 127.605469 237.214844 108.6875 219.433594 103.210938 " fill-opacity="1" fill-rule="nonzero"/></g><g clip-path="url(#935b13d793)"><path fill="#022b62" d="M 246.765625 125.039062 C 246.742188 124.953125 246.839844 124.886719 246.910156 124.9375 C 251.917969 128.5 255.320312 134.992188 255.050781 141.167969 C 254.761719 147.746094 250.007812 153.570312 245.277344 157.703125 C 242.8125 159.855469 240.136719 161.75 237.386719 163.515625 C 237.296875 163.574219 237.191406 163.460938 237.257812 163.375 C 240.414062 159.40625 243.636719 155.453125 245.894531 150.878906 C 247.117188 148.394531 248.054688 145.738281 248.347656 142.972656 C 248.671875 139.90625 248.53125 136.695312 248.269531 133.628906 C 248.027344 130.726562 247.527344 127.851562 246.765625 125.039062 Z M 259.363281 144.53125 C 259.398438 144.449219 259.511719 144.453125 259.542969 144.535156 C 261.152344 149.183594 261.136719 154.214844 258.929688 158.671875 C 257.484375 161.589844 255.242188 164.203125 252.582031 166.089844 C 245.5625 171.066406 236.609375 172.984375 228.164062 173.570312 C 221.753906 174.015625 215.296875 173.664062 208.9375 172.777344 C 208.824219 172.761719 208.832031 172.589844 208.949219 172.585938 C 217.464844 172.253906 226.371094 171.785156 234.4375 168.875 C 237.140625 167.902344 239.703125 166.597656 242.117188 165.046875 C 245.535156 162.851562 248.890625 160.40625 251.652344 157.410156 C 255.089844 153.6875 257.363281 149.144531 259.363281 144.53125 Z M 251.84375 170.621094 C 251.847656 170.785156 251.296875 171.328125 251.191406 171.460938 C 250.816406 171.917969 250.429688 172.367188 250.03125 172.804688 C 249.148438 173.773438 248.203125 174.6875 247.210938 175.542969 C 238.414062 183.140625 226.515625 186.109375 215.140625 186.660156 C 204.699219 187.167969 194.339844 185.660156 184.179688 183.378906 C 173.539062 180.988281 162.984375 178.140625 152.242188 176.242188 C 140.691406 174.203125 128.410156 173.277344 117.476562 178.34375 C 116.804688 178.65625 116.140625 178.984375 115.484375 179.332031 C 115.289062 179.433594 113.910156 180.355469 113.875 179.902344 C 113.847656 179.566406 114.617188 178.953125 114.816406 178.738281 C 115.28125 178.238281 115.761719 177.753906 116.261719 177.289062 C 118.136719 175.535156 120.242188 174.035156 122.480469 172.785156 C 127.496094 169.992188 133.140625 168.519531 138.8125 167.851562 C 154.828125 165.964844 171.058594 169.6875 186.652344 173.097656 C 207.851562 177.730469 231.8125 181.886719 251.585938 170.335938 C 251.894531 170.152344 251.835938 170.519531 251.84375 170.621094 Z M 251.84375 170.621094 " fill-opacity="1" fill-rule="nonzero"/></g><g fill="#455f82" fill-opacity="1"><g transform="translate(147.567363, 268.976204)"><g><path d="M 7.40625 -12.671875 L 5.34375 -12.671875 L 5.34375 -0.390625 C 5.34375 -0.265625 5.3125 -0.164062 5.25 -0.09375 C 5.1875 -0.03125 5.109375 0 5.015625 0 L 2.703125 0 C 2.609375 0 2.53125 -0.03125 2.46875 -0.09375 C 2.40625 -0.164062 2.375 -0.265625 2.375 -0.390625 L 2.375 -12.671875 L 0.3125 -12.671875 C 0.21875 -12.671875 0.140625 -12.703125 0.078125 -12.765625 C 0.015625 -12.835938 -0.015625 -12.941406 -0.015625 -13.078125 L -0.015625 -14.96875 C -0.015625 -15.09375 0.015625 -15.191406 0.078125 -15.265625 C 0.140625 -15.335938 0.21875 -15.375 0.3125 -15.375 L 7.40625 -15.375 C 7.5 -15.375 7.578125 -15.335938 7.640625 -15.265625 C 7.703125 -15.203125 7.734375 -15.101562 7.734375 -14.96875 L 7.734375 -13.078125 C 7.734375 -12.941406 7.703125 -12.835938 7.640625 -12.765625 C 7.578125 -12.703125 7.5 -12.671875 7.40625 -12.671875 Z M 7.40625 -12.671875 "/></g></g></g><g fill="#455f82" fill-opacity="1"><g transform="translate(156.961343, 268.976204)"><g><path d="M 6.578125 -15.375 L 8.78125 -15.375 C 8.882812 -15.375 8.972656 -15.34375 9.046875 -15.28125 C 9.117188 -15.226562 9.15625 -15.117188 9.15625 -14.953125 L 9.15625 -0.421875 C 9.15625 -0.140625 9.019531 0 8.75 0 L 6.578125 0 C 6.328125 0 6.203125 -0.140625 6.203125 -0.421875 L 6.203125 -6.53125 L 3.75 -6.53125 L 3.75 -0.421875 C 3.75 -0.140625 3.628906 0 3.390625 0 L 1.171875 0 C 0.921875 0 0.796875 -0.140625 0.796875 -0.421875 L 0.796875 -14.9375 C 0.796875 -15.226562 0.921875 -15.375 1.171875 -15.375 L 3.390625 -15.375 C 3.628906 -15.375 3.75 -15.226562 3.75 -14.9375 L 3.75 -9.203125 L 6.203125 -9.203125 L 6.203125 -14.9375 C 6.203125 -15.0625 6.234375 -15.164062 6.296875 -15.25 C 6.359375 -15.332031 6.453125 -15.375 6.578125 -15.375 Z M 6.578125 -15.375 "/></g></g></g><g fill="#455f82" fill-opacity="1"><g transform="translate(168.61057, 268.976204)"><g><path d="M 3.75 -2.671875 L 7.875 -2.671875 C 7.96875 -2.671875 8.046875 -2.640625 8.109375 -2.578125 C 8.171875 -2.515625 8.203125 -2.421875 8.203125 -2.296875 L 8.203125 -0.390625 C 8.203125 -0.253906 8.171875 -0.15625 8.109375 -0.09375 C 8.046875 -0.03125 7.96875 0 7.875 0 L 1.171875 0 C 0.921875 0 0.796875 -0.140625 0.796875 -0.421875 L 0.796875 -14.9375 C 0.796875 -15.226562 0.921875 -15.375 1.171875 -15.375 L 7.828125 -15.375 C 8.023438 -15.375 8.125 -15.238281 8.125 -14.96875 L 8.125 -13.078125 C 8.125 -12.804688 8.023438 -12.671875 7.828125 -12.671875 L 3.75 -12.671875 L 3.75 -9.109375 L 7 -9.109375 C 7.09375 -9.109375 7.175781 -9.078125 7.25 -9.015625 C 7.320312 -8.960938 7.359375 -8.863281 7.359375 -8.71875 L 7.359375 -6.828125 C 7.359375 -6.691406 7.320312 -6.59375 7.25 -6.53125 C 7.1875 -6.46875 7.101562 -6.4375 7 -6.4375 L 3.75 -6.4375 Z M 3.75 -2.671875 "/></g></g></g><g fill="#455f82" fill-opacity="1"><g transform="translate(178.748892, 268.976204)"><g/></g></g><g fill="#455f82" fill-opacity="1"><g transform="translate(185.587666, 268.976204)"><g><path d="M 7.40625 -12.671875 L 5.34375 -12.671875 L 5.34375 -0.390625 C 5.34375 -0.265625 5.3125 -0.164062 5.25 -0.09375 C 5.1875 -0.03125 5.109375 0 5.015625 0 L 2.703125 0 C 2.609375 0 2.53125 -0.03125 2.46875 -0.09375 C 2.40625 -0.164062 2.375 -0.265625 2.375 -0.390625 L 2.375 -12.671875 L 0.3125 -12.671875 C 0.21875 -12.671875 0.140625 -12.703125 0.078125 -12.765625 C 0.015625 -12.835938 -0.015625 -12.941406 -0.015625 -13.078125 L -0.015625 -14.96875 C -0.015625 -15.09375 0.015625 -15.191406 0.078125 -15.265625 C 0.140625 -15.335938 0.21875 -15.375 0.3125 -15.375 L 7.40625 -15.375 C 7.5 -15.375 7.578125 -15.335938 7.640625 -15.265625 C 7.703125 -15.203125 7.734375 -15.101562 7.734375 -14.96875 L 7.734375 -13.078125 C 7.734375 -12.941406 7.703125 -12.835938 7.640625 -12.765625 C 7.578125 -12.703125 7.5 -12.671875 7.40625 -12.671875 Z M 7.40625 -12.671875 "/></g></g></g><g fill="#455f82" fill-opacity="1"><g transform="translate(194.981647, 268.976204)"><g><path d="M 6.578125 -15.375 L 8.78125 -15.375 C 8.882812 -15.375 8.972656 -15.34375 9.046875 -15.28125 C 9.117188 -15.226562 9.15625 -15.117188 9.15625 -14.953125 L 9.15625 -0.421875 C 9.15625 -0.140625 9.019531 0 8.75 0 L 6.578125 0 C 6.328125 0 6.203125 -0.140625 6.203125 -0.421875 L 6.203125 -6.53125 L 3.75 -6.53125 L 3.75 -0.421875 C 3.75 -0.140625 3.628906 0 3.390625 0 L 1.171875 0 C 0.921875 0 0.796875 -0.140625 0.796875 -0.421875 L 0.796875 -14.9375 C 0.796875 -15.226562 0.921875 -15.375 1.171875 -15.375 L 3.390625 -15.375 C 3.628906 -15.375 3.75 -15.226562 3.75 -14.9375 L 3.75 -9.203125 L 6.203125 -9.203125 L 6.203125 -14.9375 C 6.203125 -15.0625 6.234375 -15.164062 6.296875 -15.25 C 6.359375 -15.332031 6.453125 -15.375 6.578125 -15.375 Z M 6.578125 -15.375 "/></g></g></g><g fill="#455f82" fill-opacity="1"><g transform="translate(206.630875, 268.976204)"><g><path d="M 3.671875 -11.59375 L 3.671875 -6.25 L 6.03125 -6.25 L 6.03125 -11.59375 C 6.03125 -11.945312 5.925781 -12.257812 5.71875 -12.53125 C 5.507812 -12.800781 5.222656 -12.9375 4.859375 -12.9375 C 4.472656 -12.9375 4.175781 -12.800781 3.96875 -12.53125 C 3.769531 -12.257812 3.671875 -11.945312 3.671875 -11.59375 Z M 9 -11.765625 L 9 -0.4375 C 9 -0.332031 8.96875 -0.234375 8.90625 -0.140625 C 8.851562 -0.046875 8.765625 0 8.640625 0 L 6.390625 0 C 6.273438 0 6.1875 -0.0390625 6.125 -0.125 C 6.0625 -0.21875 6.03125 -0.320312 6.03125 -0.4375 L 6.03125 -3.671875 L 3.671875 -3.671875 L 3.671875 -0.4375 C 3.671875 -0.3125 3.644531 -0.207031 3.59375 -0.125 C 3.550781 -0.0390625 3.460938 0 3.328125 0 L 0.984375 0 C 0.898438 0 0.832031 -0.0390625 0.78125 -0.125 C 0.726562 -0.207031 0.703125 -0.3125 0.703125 -0.4375 L 0.703125 -11.765625 C 0.703125 -12.296875 0.8125 -12.796875 1.03125 -13.265625 C 1.25 -13.734375 1.550781 -14.140625 1.9375 -14.484375 C 2.320312 -14.835938 2.765625 -15.113281 3.265625 -15.3125 C 3.765625 -15.519531 4.289062 -15.625 4.84375 -15.625 C 5.394531 -15.625 5.921875 -15.519531 6.421875 -15.3125 C 6.921875 -15.113281 7.363281 -14.835938 7.75 -14.484375 C 8.132812 -14.140625 8.4375 -13.734375 8.65625 -13.265625 C 8.882812 -12.796875 9 -12.296875 9 -11.765625 Z M 9 -11.765625 "/></g></g></g><g fill="#455f82" fill-opacity="1"><g transform="translate(218.013474, 268.976204)"><g><path d="M 8.859375 -11.75 L 8.859375 -3.609375 C 8.859375 -3.003906 8.742188 -2.460938 8.515625 -1.984375 C 8.296875 -1.515625 7.992188 -1.113281 7.609375 -0.78125 C 7.222656 -0.445312 6.773438 -0.191406 6.265625 -0.015625 C 5.765625 0.160156 5.238281 0.25 4.6875 0.25 C 4.132812 0.25 3.609375 0.160156 3.109375 -0.015625 C 2.609375 -0.203125 2.164062 -0.460938 1.78125 -0.796875 C 1.394531 -1.128906 1.09375 -1.535156 0.875 -2.015625 C 0.664062 -2.492188 0.5625 -3.023438 0.5625 -3.609375 L 0.5625 -11.75 C 0.5625 -12.351562 0.664062 -12.890625 0.875 -13.359375 C 1.09375 -13.835938 1.394531 -14.242188 1.78125 -14.578125 C 2.164062 -14.910156 2.609375 -15.164062 3.109375 -15.34375 C 3.609375 -15.519531 4.132812 -15.609375 4.6875 -15.609375 C 5.238281 -15.609375 5.765625 -15.519531 6.265625 -15.34375 C 6.773438 -15.164062 7.222656 -14.910156 7.609375 -14.578125 C 7.992188 -14.242188 8.296875 -13.835938 8.515625 -13.359375 C 8.742188 -12.890625 8.859375 -12.351562 8.859375 -11.75 Z M 4.703125 -12.9375 C 4.328125 -12.9375 4.035156 -12.800781 3.828125 -12.53125 C 3.617188 -12.257812 3.515625 -11.945312 3.515625 -11.59375 L 3.515625 -3.765625 C 3.515625 -3.421875 3.613281 -3.113281 3.8125 -2.84375 C 4.019531 -2.570312 4.3125 -2.4375 4.6875 -2.4375 C 5.070312 -2.4375 5.367188 -2.554688 5.578125 -2.796875 C 5.796875 -3.046875 5.90625 -3.347656 5.90625 -3.703125 L 5.90625 -11.59375 C 5.90625 -11.945312 5.796875 -12.257812 5.578125 -12.53125 C 5.367188 -12.800781 5.078125 -12.9375 4.703125 -12.9375 Z M 4.703125 -12.9375 "/></g></g></g><g fill="#022b62" fill-opacity="1"><g transform="translate(145.697458, 241.12304)"><g><path d="M 19.390625 -26.28125 L 19.390625 -23.859375 C 19.390625 -23.472656 19.335938 -23.191406 19.234375 -23.015625 C 19.140625 -22.847656 18.925781 -22.765625 18.59375 -22.765625 L 13.953125 -22.765625 C 13.648438 -22.765625 13.441406 -22.84375 13.328125 -23 C 13.222656 -23.15625 13.171875 -23.410156 13.171875 -23.765625 L 13.171875 -26.078125 C 13.171875 -26.578125 13.070312 -27.054688 12.875 -27.515625 C 12.675781 -27.972656 12.382812 -28.347656 12 -28.640625 C 11.625 -28.929688 11.160156 -29.078125 10.609375 -29.078125 C 9.796875 -29.078125 9.140625 -28.78125 8.640625 -28.1875 C 8.140625 -27.59375 7.890625 -26.90625 7.890625 -26.125 L 7.890625 -8.484375 C 7.890625 -7.972656 7.992188 -7.484375 8.203125 -7.015625 C 8.421875 -6.546875 8.734375 -6.171875 9.140625 -5.890625 C 9.546875 -5.609375 10.035156 -5.46875 10.609375 -5.46875 C 11.523438 -5.46875 12.203125 -5.773438 12.640625 -6.390625 C 13.078125 -7.003906 13.296875 -7.703125 13.296875 -8.484375 L 13.296875 -11.453125 C 13.296875 -11.835938 13.347656 -12.09375 13.453125 -12.21875 C 13.566406 -12.351562 13.765625 -12.421875 14.046875 -12.421875 L 18.71875 -12.421875 C 19 -12.421875 19.207031 -12.363281 19.34375 -12.25 C 19.476562 -12.132812 19.546875 -11.882812 19.546875 -11.5 L 19.546875 -8.109375 C 19.546875 -6.316406 19.140625 -4.769531 18.328125 -3.46875 C 17.523438 -2.164062 16.441406 -1.171875 15.078125 -0.484375 C 13.722656 0.203125 12.21875 0.546875 10.5625 0.546875 C 9.3125 0.546875 8.125 0.351562 7 -0.03125 C 5.875 -0.425781 4.878906 -1 4.015625 -1.75 C 3.148438 -2.5 2.472656 -3.410156 1.984375 -4.484375 C 1.492188 -5.554688 1.25 -6.765625 1.25 -8.109375 L 1.25 -26.40625 C 1.25 -27.632812 1.476562 -28.773438 1.9375 -29.828125 C 2.394531 -30.890625 3.035156 -31.8125 3.859375 -32.59375 C 4.691406 -33.375 5.675781 -33.976562 6.8125 -34.40625 C 7.945312 -34.84375 9.195312 -35.0625 10.5625 -35.0625 C 12.070312 -35.0625 13.382812 -34.8125 14.5 -34.3125 C 15.613281 -33.8125 16.53125 -33.144531 17.25 -32.3125 C 17.976562 -31.476562 18.515625 -30.535156 18.859375 -29.484375 C 19.210938 -28.441406 19.390625 -27.375 19.390625 -26.28125 Z M 19.390625 -26.28125 "/></g></g></g><g fill="#022b62" fill-opacity="1"><g transform="translate(169.965333, 241.12304)"><g><path d="M 8.234375 -26.046875 L 8.234375 -14.046875 L 13.546875 -14.046875 L 13.546875 -26.046875 C 13.546875 -26.835938 13.3125 -27.535156 12.84375 -28.140625 C 12.382812 -28.742188 11.738281 -29.046875 10.90625 -29.046875 C 10.0625 -29.046875 9.40625 -28.742188 8.9375 -28.140625 C 8.46875 -27.535156 8.234375 -26.835938 8.234375 -26.046875 Z M 20.21875 -26.421875 L 20.21875 -1 C 20.21875 -0.75 20.15625 -0.519531 20.03125 -0.3125 C 19.90625 -0.101562 19.703125 0 19.421875 0 L 14.34375 0 C 14.09375 0 13.894531 -0.0976562 13.75 -0.296875 C 13.613281 -0.492188 13.546875 -0.726562 13.546875 -1 L 13.546875 -8.234375 L 8.234375 -8.234375 L 8.234375 -0.96875 C 8.234375 -0.707031 8.179688 -0.476562 8.078125 -0.28125 C 7.984375 -0.09375 7.785156 0 7.484375 0 L 2.21875 0 C 2.039062 0 1.890625 -0.09375 1.765625 -0.28125 C 1.640625 -0.476562 1.578125 -0.707031 1.578125 -0.96875 L 1.578125 -26.421875 C 1.578125 -27.617188 1.820312 -28.742188 2.3125 -29.796875 C 2.8125 -30.847656 3.488281 -31.765625 4.34375 -32.546875 C 5.207031 -33.335938 6.203125 -33.957031 7.328125 -34.40625 C 8.453125 -34.863281 9.632812 -35.09375 10.875 -35.09375 C 12.125 -35.09375 13.3125 -34.863281 14.4375 -34.40625 C 15.5625 -33.957031 16.554688 -33.335938 17.421875 -32.546875 C 18.285156 -31.765625 18.96875 -30.847656 19.46875 -29.796875 C 19.96875 -28.742188 20.21875 -27.617188 20.21875 -26.421875 Z M 20.21875 -26.421875 "/></g></g></g><g fill="#022b62" fill-opacity="1"><g transform="translate(195.530673, 241.12304)"><g><path d="M 25.5625 -1 L 25.5625 -26.046875 C 25.5625 -26.835938 25.320312 -27.535156 24.84375 -28.140625 C 24.363281 -28.742188 23.710938 -29.046875 22.890625 -29.046875 C 22.066406 -29.046875 21.421875 -28.753906 20.953125 -28.171875 C 20.492188 -27.585938 20.25 -26.914062 20.21875 -26.15625 L 20.21875 -0.953125 C 20.21875 -0.679688 20.171875 -0.453125 20.078125 -0.265625 C 19.984375 -0.0859375 19.785156 0 19.484375 0 L 14.21875 0 C 14.050781 0 13.894531 -0.09375 13.75 -0.28125 C 13.613281 -0.476562 13.546875 -0.707031 13.546875 -0.96875 L 13.546875 -26.046875 C 13.546875 -26.835938 13.3125 -27.535156 12.84375 -28.140625 C 12.382812 -28.742188 11.738281 -29.046875 10.90625 -29.046875 C 10.0625 -29.046875 9.40625 -28.742188 8.9375 -28.140625 C 8.46875 -27.535156 8.234375 -26.835938 8.234375 -26.046875 L 8.234375 -0.96875 C 8.234375 -0.707031 8.179688 -0.476562 8.078125 -0.28125 C 7.984375 -0.09375 7.785156 0 7.484375 0 L 2.21875 0 C 2.050781 0 1.898438 -0.09375 1.765625 -0.28125 C 1.640625 -0.476562 1.578125 -0.707031 1.578125 -0.96875 L 1.578125 -26.421875 C 1.578125 -27.617188 1.820312 -28.742188 2.3125 -29.796875 C 2.8125 -30.847656 3.488281 -31.765625 4.34375 -32.546875 C 5.207031 -33.335938 6.203125 -33.957031 7.328125 -34.40625 C 8.453125 -34.863281 9.632812 -35.09375 10.875 -35.09375 C 11.988281 -35.09375 13.0625 -34.90625 14.09375 -34.53125 C 15.125 -34.164062 16.050781 -33.660156 16.875 -33.015625 C 17.6875 -33.660156 18.609375 -34.164062 19.640625 -34.53125 C 20.671875 -34.90625 21.742188 -35.09375 22.859375 -35.09375 C 24.109375 -35.09375 25.289062 -34.863281 26.40625 -34.40625 C 27.53125 -33.957031 28.523438 -33.335938 29.390625 -32.546875 C 30.265625 -31.765625 30.945312 -30.847656 31.4375 -29.796875 C 31.9375 -28.742188 32.1875 -27.617188 32.1875 -26.421875 L 32.1875 -1 C 32.1875 -0.75 32.128906 -0.519531 32.015625 -0.3125 C 31.898438 -0.101562 31.703125 0 31.421875 0 L 26.359375 0 C 26.085938 0 25.882812 -0.0976562 25.75 -0.296875 C 25.625 -0.492188 25.5625 -0.726562 25.5625 -1 Z M 25.5625 -1 "/></g></g></g></svg>
